# xmcd
# 
# Track frame offsets:
#     150
#     16882
#     34117
#     57165
# 
# Disc length: 1127
# 
# Revision: 0
# Processed by: cddbd v1.5.2PL0 Copyright (c) Steve Scherf et al.
# Submitted via: fre:ac v1.0.17
# 
DISCID=27046504
DTITLE=B-Tribe feat. Deborah Blando - Nanita a Spanish Lullaby (MCD)
DYEAR=1995
DGENRE=Dance
TTITLE0=Nanita a Spanish Lullaby Radio Version
TTITLE1=Nanita a Spanish Lullaby Spanish Version
TTITLE2=Nanita a Spanish Lullaby Extended Remix Version
TTITLE3=Nanita a Spanish Lullaby Club Remix
EXTD=
EXTT0=
EXTT1=
EXTT2=
EXTT3=
PLAYORDER=
